<svg xmlns="http://www.w3.org/2000/svg" width="934" height="934" viewBox="0 0 934 934">
<g>
<path d="M 532.50 931.98 C519.65,933.78 521.91,933.80 726.75,933.90 L 934.00 934.00 L 0.00 934.00 L 0.00 0.00 L 732.83 0.00 C622.33,0.00 532.08,0.17 532.08,0.39 L 532.08 0.39 C532.31,0.60 537.45,1.55 543.50,2.49 C574.31,7.28 608.06,16.79 640.00,29.69 C664.89,39.75 701.32,58.85 720.42,71.87 C736.88,83.08 748.80,91.87 752.82,95.73 C753.55,96.43 754.45,97.00 754.83,97.00 C755.21,97.00 756.64,98.01 758.02,99.25 C759.39,100.49 765.01,105.40 770.51,110.17 C789.63,126.76 817.37,155.97 832.50,175.45 C834.15,177.57 836.44,180.48 837.59,181.91 C841.89,187.25 858.93,212.90 865.22,223.50 C874.94,239.89 878.69,246.92 886.79,264.00 C909.04,310.87 922.66,358.86 929.21,413.50 C931.19,430.00 931.48,437.04 931.43,467.00 C931.36,501.83 930.50,514.36 926.40,540.00 C917.49,595.74 900.65,644.93 873.01,695.92 C867.86,705.43 860.24,717.72 850.67,732.00 C824.83,770.52 785.46,812.58 751.00,838.49 C747.42,841.17 742.92,844.66 741.00,846.22 C736.07,850.23 737.10,849.51 719.34,861.29 C710.45,867.18 702.91,872.00 702.57,872.00 C702.24,872.00 698.71,873.97 694.73,876.38 C682.39,883.85 653.11,898.05 637.50,904.14 C602.71,917.70 567.21,927.11 532.50,931.98 ZM 0.15 703.25 L 0.00 934.00 L 205.25 933.90 L 410.50 933.80 L 396.00 931.44 C332.87,921.13 285.13,903.72 227.00,869.78 C178.34,841.38 126.48,793.85 91.37,745.50 C63.54,707.16 43.18,668.02 25.82,619.50 C22.11,609.13 20.60,604.00 14.47,581.00 C7.69,555.52 2.58,520.69 1.13,490.00 C1.10,489.42 1.07,489.14 1.05,489.14 C0.59,489.14 0.23,572.92 0.15,703.25 ZM 0.15 229.75 C0.23,358.25 0.59,443.28 1.05,443.28 C1.07,443.28 1.10,443.02 1.12,442.50 C2.53,413.40 7.07,381.54 13.47,355.80 C23.64,314.94 34.53,285.35 52.07,250.95 C59.37,236.62 75.94,208.56 81.25,201.50 C81.67,200.95 84.59,196.83 87.75,192.34 C111.48,158.62 144.88,123.08 176.00,98.44 C180.12,95.17 183.94,92.13 184.50,91.69 C195.49,82.80 224.17,63.97 241.00,54.58 C249.27,49.96 276.46,36.54 284.02,33.33 C315.23,20.12 349.82,9.61 380.50,4.01 C387.10,2.81 394.30,1.46 396.50,1.02 C396.53,1.01 396.54,1.01 396.54,1.00 C396.54,0.57 309.04,0.17 200.25,0.11 L 0.00 0.00 ZM 330.24 682.00 C333.35,683.39 334.95,683.59 336.91,682.84 C338.49,682.24 355.29,681.95 380.02,682.09 C423.38,682.34 423.43,682.33 426.75,677.26 C428.38,674.78 428.54,667.98 429.00,581.54 L 429.50 488.50 L 458.27 488.23 L 487.04 487.97 L 488.07 490.68 C488.76,492.49 489.05,523.61 488.94,583.63 C488.78,669.85 488.85,674.03 490.63,677.67 C491.66,679.76 493.65,682.11 495.06,682.88 C498.40,684.73 504.11,683.67 507.75,680.54 L 510.50 678.17 L 511.00 478.05 C511.44,301.62 511.68,277.81 513.00,276.97 C514.96,275.72 534.13,275.95 535.75,277.25 C536.74,278.04 537.00,318.93 537.00,475.65 C537.00,486.68 537.00,497.10 537.00,506.96 C536.99,669.50 536.99,677.90 540.84,680.43 C541.28,680.72 541.78,680.93 542.33,681.30 C547.15,684.46 554.96,682.76 558.44,677.78 C559.84,675.78 560.00,655.31 560.00,476.98 C560.00,323.86 560.27,278.13 561.20,277.20 C561.88,276.52 565.13,276.00 568.68,276.00 C580.01,276.00 584.98,272.45 585.21,264.20 C585.32,260.39 582.59,256.00 580.11,256.00 C579.10,256.00 577.20,255.16 575.88,254.14 C573.59,252.35 569.11,252.29 455.00,252.45 C450.37,252.46 445.92,252.47 441.62,252.47 C337.91,252.62 328.99,252.63 325.83,256.90 C325.40,257.48 325.08,258.14 324.64,258.89 C323.24,261.28 322.94,263.11 323.42,266.32 C324.06,270.56 327.88,275.97 330.29,276.04 C330.96,276.05 366.42,276.04 409.10,276.00 C476.23,275.94 486.86,276.13 487.92,277.40 C489.56,279.38 489.08,461.33 487.42,462.98 C486.72,463.68 474.15,464.24 450.92,464.60 C431.44,464.90 414.09,465.58 412.37,466.11 C411.12,466.50 410.11,466.57 409.29,467.01 C405.81,468.86 405.82,477.28 405.93,544.09 C405.94,550.16 405.95,556.72 405.96,563.81 C406.06,648.01 405.92,656.93 404.47,658.39 C403.09,659.77 399.43,660.02 378.68,660.15 L 378.30 660.15 C352.71,660.31 349.38,660.33 347.54,658.69 C347.26,658.43 347.01,658.14 346.72,657.80 C345.04,655.82 344.95,648.11 345.03,506.78 C345.10,385.56 344.87,357.55 343.81,356.26 C340.16,351.83 331.09,350.23 327.18,353.32 C326.87,353.56 326.58,353.76 326.31,353.99 C322.95,356.85 323.05,363.80 322.88,517.36 C322.87,531.90 322.85,545.14 322.83,557.19 C322.67,668.17 322.65,678.68 326.90,680.85 C327.81,681.32 328.91,681.40 330.24,682.00 ZM 602.77 680.29 C604.27,680.51 606.06,680.77 606.73,680.85 C607.41,680.93 609.44,679.69 611.23,678.08 L 614.50 675.16 L 615.50 535.50 L 647.00 534.95 L 647.00 604.75 C647.00,608.54 647.00,612.13 647.00,615.53 C646.99,669.10 646.98,676.76 650.41,678.88 C651.20,679.37 652.17,679.56 653.36,679.95 C657.47,681.31 661.24,680.09 663.47,676.69 C664.88,674.53 665.01,660.27 664.77,534.89 L 664.50 395.50 L 661.84 390.50 C658.48,384.20 653.06,379.01 646.00,375.36 C641.09,372.81 639.49,372.51 631.00,372.51 C623.34,372.50 620.58,372.92 616.78,374.68 C610.18,377.73 602.70,385.07 599.34,391.80 L 596.50 397.50 L 596.24 536.10 C595.97,674.19 595.98,674.70 598.01,677.28 C599.13,678.71 601.27,680.06 602.77,680.29 ZM 690.27 680.30 C694.82,681.18 695.95,680.95 698.69,678.59 L 701.50 676.17 L 702.50 533.50 L 735.00 532.95 L 735.00 603.84 C735.00,672.85 735.05,674.80 736.97,677.23 C740.66,681.93 749.19,681.26 751.97,676.06 C752.66,674.76 753.00,625.59 753.00,525.71 L 753.00 377.29 L 750.55 374.65 C747.21,371.04 741.57,370.99 737.74,374.54 L 735.00 377.08 L 735.00 515.05 L 702.50 514.50 L 702.00 445.16 L 701.50 375.82 L 699.14 373.91 C695.77,371.19 690.79,371.47 687.08,374.59 L 684.00 377.18 L 684.00 525.68 C684.00,673.09 684.01,674.21 686.02,677.03 C687.13,678.59 689.04,680.06 690.27,680.30 ZM 222.08 562.41 L 225.15 565.00 L 253.52 565.00 C281.51,565.00 281.92,564.97 284.48,562.75 C285.98,561.44 287.30,559.01 287.63,556.94 C288.09,554.05 287.70,552.79 285.51,550.19 L 282.82 547.00 L 237.00 547.00 L 237.00 420.11 L 259.58 419.80 L 282.17 419.50 L 285.19 416.11 C287.73,413.27 288.13,412.16 287.64,409.17 C287.32,407.22 286.14,404.69 285.01,403.56 C283.07,401.62 281.62,401.48 259.97,401.20 L 237.00 400.90 L 237.00 274.00 L 259.37 274.00 C280.37,274.00 281.89,273.88 284.33,271.96 C288.90,268.36 288.78,260.89 284.09,257.28 C282.92,256.39 274.66,256.06 253.20,256.03 L 223.91 256.00 L 221.45 258.45 L 219.00 260.91 L 219.00 559.82 ZM 134.18 562.16 L 137.36 565.00 L 193.85 565.00 L 196.92 562.41 C199.37,560.36 200.00,559.04 200.00,556.02 C200.00,553.77 199.22,551.26 198.09,549.86 C196.20,547.53 195.88,547.49 172.84,547.00 L 149.50 546.50 L 148.50 259.82 L 146.14 257.91 C143.47,255.75 137.36,255.40 134.91,257.28 C134.04,257.95 132.80,259.48 132.16,260.68 C131.29,262.32 131.00,300.32 131.00,411.10 L 131.00 559.32 ZM 774.45 622.55 C778.60,626.69 787.98,624.95 789.36,619.79 C789.70,618.53 789.98,563.37 789.99,497.20 L 790.00 376.91 L 787.55 374.45 C785.69,372.60 784.03,372.00 780.73,372.00 C777.06,372.00 776.03,372.47 774.19,374.96 L 772.00 377.92 L 772.00 620.09 ZM 646.98 460.25 L 647.00 517.00 L 615.00 517.00 L 615.00 399.74 L 619.28 395.45 C627.94,386.80 640.23,388.68 645.10,399.42 C646.84,403.24 646.96,407.17 646.98,460.25 ZM 242.51 242.79 C243.61,243.42 245.83,243.95 247.46,243.97 C249.94,244.00 252.57,241.85 263.71,230.71 L 277.00 217.42 L 277.00 212.66 C277.00,206.44 273.68,203.00 267.68,203.00 C263.86,203.00 262.99,203.65 250.72,215.82 C238.58,227.87 237.77,228.92 237.37,233.07 C236.92,237.71 238.32,240.36 242.51,242.79 ZM 778.27 680.32 C782.04,681.07 785.39,680.04 787.75,677.41 C789.84,675.07 790.00,673.96 790.00,661.76 C790.00,649.65 789.83,648.45 787.83,646.31 C784.85,643.14 777.62,643.07 774.31,646.17 C772.12,648.23 772.00,649.04 772.00,661.54 C772.00,673.26 772.23,675.02 774.02,677.30 C775.13,678.71 777.04,680.07 778.27,680.32 ZM 646.43 750.67 C646.78,751.60 648.75,751.81 653.71,751.44 C659.35,751.02 660.88,750.51 662.75,748.41 C666.29,744.44 665.32,738.27 660.94,736.81 C660.22,736.57 660.44,735.40 661.58,733.42 C665.29,726.94 660.01,721.52 650.66,722.20 L 646.50 722.50 L 646.22 735.95 C646.07,743.35 646.16,749.97 646.43,750.67 ZM 368.50 722.50 L 367.95 752.00 L 372.22 751.99 C385.07,751.98 391.19,744.71 384.01,738.01 C381.66,735.82 381.34,735.08 382.51,734.64 C383.48,734.26 384.00,732.70 384.00,730.19 C384.00,724.69 381.53,722.77 374.27,722.62 ZM 477.22 751.16 C479.65,752.70 480.00,751.98 480.00,745.50 C480.00,740.56 480.34,739.00 481.42,739.00 C484.46,739.00 486.24,740.47 490.09,746.13 C493.76,751.54 495.71,752.96 497.28,751.39 C497.92,750.74 493.89,743.96 490.69,740.31 C488.78,738.14 488.79,738.09 490.88,735.42 C496.49,728.29 490.13,720.95 479.41,722.17 L 476.50 722.50 L 476.22 736.42 C476.01,746.89 476.26,750.55 477.22,751.16 ZM 745.22 751.16 C747.65,752.70 748.00,751.98 748.00,745.50 C748.00,739.36 748.13,739.00 750.33,739.00 C752.87,739.00 755.17,741.23 759.32,747.75 C761.85,751.72 763.78,752.88 765.31,751.36 C765.66,751.00 763.92,747.80 761.43,744.24 C757.30,738.34 757.04,737.61 758.44,736.07 C761.33,732.87 761.44,728.62 758.71,725.44 C756.50,722.89 755.57,722.56 750.36,722.53 L 744.50 722.50 L 744.22 736.42 C744.01,746.89 744.26,750.55 745.22,751.16 ZM 311.69 751.35 C313.41,753.07 314.52,750.85 314.80,745.17 C315.04,740.05 315.40,739.00 316.86,739.00 C318.99,739.00 323.15,743.27 325.44,747.80 C327.25,751.39 329.57,752.83 331.10,751.30 C331.71,750.69 331.33,749.41 330.03,747.76 C328.91,746.35 328.00,744.80 328.00,744.33 C328.00,743.86 326.83,742.21 325.39,740.67 L 322.78 737.85 L 324.89 735.89 C326.35,734.53 327.00,732.70 327.00,729.98 C327.00,725.00 324.05,722.83 316.41,722.20 L 311.00 721.75 L 311.00 736.21 C311.00,744.16 311.31,750.98 311.69,751.35 ZM 224.67 751.33 C225.03,751.70 225.92,752.00 226.63,752.00 C227.61,752.00 228.01,749.19 228.22,740.87 L 228.50 729.74 L 237.94 740.87 C246.76,751.28 249.35,753.42 250.17,751.02 C250.35,750.48 250.36,743.73 250.20,736.02 C249.95,724.59 249.63,722.00 248.45,722.00 C247.32,722.00 246.98,723.70 246.89,729.75 C246.71,742.73 246.62,744.00 245.88,744.00 C245.49,744.00 245.02,743.59 244.83,743.08 C244.65,742.57 240.90,737.88 236.50,732.65 C230.91,726.01 227.82,723.12 226.25,723.07 C224.02,723.00 224.00,723.13 224.00,736.83 C224.00,744.44 224.30,750.97 224.67,751.33 ZM 602.67 751.33 C603.03,751.70 603.93,752.00 604.67,752.00 C605.70,752.00 606.00,749.50 606.00,741.00 C606.00,734.95 606.34,730.02 606.75,730.04 C607.16,730.06 609.30,732.38 611.50,735.19 C613.70,738.00 615.95,740.79 616.50,741.40 C617.05,742.00 619.04,744.30 620.92,746.50 C622.80,748.70 625.16,750.82 626.17,751.22 C627.90,751.89 628.00,751.08 628.00,736.89 C628.00,723.11 627.85,721.88 626.25,722.20 C624.69,722.50 624.54,723.67 624.83,732.77 C625.02,738.85 624.77,743.00 624.20,743.00 C623.11,743.00 616.75,736.08 610.63,728.25 C607.83,724.67 605.81,723.00 604.26,723.00 C602.02,723.00 602.00,723.13 602.00,736.83 C602.00,744.44 602.30,750.97 602.67,751.33 ZM 137.61 751.18 C138.91,753.28 141.09,751.07 142.98,745.75 C143.89,743.16 144.31,743.00 149.95,743.00 C155.94,743.00 155.97,743.02 157.97,746.93 C160.24,751.39 161.74,752.66 163.12,751.28 C163.72,750.68 162.53,747.03 159.93,741.42 C157.65,736.51 155.42,731.60 154.98,730.50 C154.53,729.40 153.57,727.04 152.84,725.25 C152.11,723.46 150.92,722.00 150.20,722.00 C149.48,722.00 147.75,724.59 146.36,727.75 C144.98,730.91 143.44,734.40 142.96,735.50 C139.60,743.13 137.13,750.40 137.61,751.18 ZM 667.31 749.25 C666.37,753.88 669.63,752.63 671.90,747.50 L 673.89 743.00 L 686.07 743.00 L 688.00 747.50 C689.17,750.23 690.58,752.00 691.57,752.00 C693.77,752.00 693.04,749.26 687.60,737.07 C685.25,731.81 682.81,726.26 682.18,724.75 C681.56,723.24 680.41,722.00 679.63,722.00 C678.23,722.00 668.46,743.60 667.31,749.25 ZM 562.26 749.85 C561.29,754.13 565.15,751.96 566.86,747.25 L 568.41 743.00 L 581.02 743.00 L 582.58 746.90 C584.02,750.52 588.04,753.31 587.97,750.66 C587.90,747.79 576.21,722.47 574.84,722.21 C573.76,722.00 571.84,725.54 568.06,734.71 C565.16,741.74 562.55,748.56 562.26,749.85 ZM 446.44 750.70 C446.71,751.41 447.63,752.00 448.47,752.00 C449.69,752.00 450.00,750.67 450.00,745.50 L 450.00 739.00 L 466.00 739.00 L 466.00 745.50 C466.00,751.33 466.21,752.00 468.00,752.00 C469.91,752.00 470.00,751.33 470.00,737.00 C470.00,722.67 469.91,722.00 468.00,722.00 C466.21,722.00 466.00,722.67 466.00,728.50 L 466.00 735.00 L 450.10 735.00 L 449.80 728.75 C449.57,723.99 449.14,722.50 448.00,722.50 C446.75,722.50 446.45,724.79 446.22,735.95 C446.07,743.35 446.16,749.98 446.44,750.70 ZM 697.69 751.35 C699.45,753.12 700.53,750.77 700.80,744.55 L 701.10 737.76 L 708.44 744.88 C712.48,748.80 716.48,752.00 717.33,752.00 C720.33,752.00 719.95,750.18 716.24,746.76 C714.18,744.85 710.98,741.68 709.11,739.71 L 705.72 736.12 L 711.36 729.70 C714.46,726.17 717.00,722.99 717.00,722.64 C717.00,722.29 715.99,722.03 714.75,722.07 C713.28,722.11 710.76,724.19 707.50,728.03 C704.75,731.27 702.16,733.94 701.75,733.96 C701.34,733.98 701.00,731.30 701.00,728.00 C701.00,722.67 700.78,722.00 699.00,722.00 C697.09,722.00 697.00,722.67 697.00,736.33 C697.00,744.22 697.31,750.98 697.69,751.35 ZM 287.33 750.54 C291.51,752.36 295.44,752.34 299.03,750.48 C303.81,748.01 305.00,744.43 305.00,732.48 C305.00,722.90 304.83,721.89 303.25,722.19 C301.74,722.48 301.46,723.95 301.21,732.99 C300.96,742.07 300.64,743.75 298.79,745.73 C295.96,748.74 290.47,748.79 287.31,745.83 C285.17,743.81 285.00,742.85 285.00,732.75 C285.00,722.91 284.83,721.89 283.25,722.19 C281.73,722.48 281.46,723.97 281.21,733.38 C280.89,745.61 281.79,748.13 287.33,750.54 ZM 528.25 751.26 C531.69,751.45 535.29,751.70 536.25,751.81 C537.40,751.93 538.00,751.31 538.00,750.00 C538.00,748.22 537.33,748.00 532.00,748.00 L 526.00 748.00 L 526.00 739.10 L 531.74 738.80 C536.27,738.56 537.55,738.13 537.81,736.75 C538.10,735.24 537.32,735.00 532.07,735.00 L 526.00 735.00 L 526.00 726.00 L 532.00 726.00 C537.33,726.00 538.00,725.78 538.00,724.00 C538.00,722.17 537.33,722.00 530.00,722.00 L 522.00 722.00 L 522.00 750.90 ZM 204.52 751.00 C204.68,751.28 208.23,751.53 212.41,751.56 C219.09,751.62 220.00,751.41 220.00,749.81 C220.00,748.26 219.13,748.00 214.00,748.00 L 208.00 748.00 L 208.00 739.00 L 213.50 739.00 C218.33,739.00 219.00,738.76 219.00,737.00 C219.00,735.24 218.33,735.00 213.50,735.00 L 208.00 735.00 L 208.00 726.00 L 214.07 726.00 C219.32,726.00 220.10,725.76 219.81,724.25 C219.53,722.79 218.18,722.45 211.74,722.21 L 204.00 721.92 L 203.79 728.21 C203.56,735.13 204.04,750.21 204.52,751.00 ZM 501.34 750.45 C501.58,751.06 505.04,751.50 509.61,751.50 C516.30,751.50 517.52,751.24 517.81,749.75 C518.10,748.23 517.30,748.00 511.57,748.00 L 505.00 748.00 L 505.00 739.00 L 511.00 739.00 C516.33,739.00 517.00,738.78 517.00,737.00 C517.00,735.22 516.33,735.00 511.00,735.00 L 505.00 735.00 L 505.00 726.00 L 511.00 726.00 C516.37,726.00 517.00,725.79 517.00,723.96 C517.00,722.05 516.48,721.94 509.25,722.21 L 501.50 722.50 L 501.22 735.95 C501.07,743.35 501.12,749.87 501.34,750.45 ZM 336.00 722.00 L 336.00 751.00 L 344.00 751.00 C350.44,751.00 352.00,750.71 352.00,749.50 C352.00,748.33 350.67,748.00 346.00,748.00 L 340.00 748.00 L 340.00 739.00 L 345.50 739.00 C350.33,739.00 351.00,738.76 351.00,737.00 C351.00,735.24 350.33,735.00 345.50,735.00 L 340.00 735.00 L 340.00 726.00 L 346.00 726.00 C351.33,726.00 352.00,725.78 352.00,724.00 C352.00,722.17 351.33,722.00 344.00,722.00 ZM 724.35 750.45 C724.58,751.03 728.19,751.63 732.38,751.78 C739.47,752.05 740.00,751.93 740.00,750.03 C740.00,748.21 739.37,748.00 734.00,748.00 L 728.00 748.00 L 728.00 739.00 L 733.50 739.00 C738.33,739.00 739.00,738.76 739.00,737.00 C739.00,735.24 738.33,735.00 733.50,735.00 L 728.00 735.00 L 728.00 726.00 L 734.07 726.00 C739.32,726.00 740.10,725.76 739.81,724.25 C739.52,722.77 738.32,722.50 731.99,722.50 L 724.50 722.50 L 724.22 735.95 C724.07,743.35 724.13,749.87 724.35,750.45 ZM 428.75 750.43 C432.29,752.35 434.41,752.36 438.04,750.48 C444.30,747.24 443.04,740.25 435.23,735.01 C431.02,732.18 430.06,731.02 430.25,729.00 C430.45,726.96 431.11,726.44 433.82,726.18 C435.64,726.01 437.77,726.39 438.55,727.04 C439.68,727.98 440.12,727.86 440.65,726.47 C442.29,722.19 433.26,720.43 428.58,724.11 C426.40,725.83 425.95,726.91 426.20,729.82 C426.45,732.88 427.36,734.07 432.25,737.78 C435.41,740.18 438.00,742.92 438.00,743.87 C438.00,747.80 433.12,749.31 429.44,746.53 C426.81,744.54 426.00,744.64 426.00,746.97 C426.00,748.09 427.19,749.58 428.75,750.43 ZM 181.72 737.25 C184.88,744.81 187.76,751.00 188.13,751.00 C188.50,751.00 189.27,749.76 189.84,748.25 C190.40,746.74 192.92,740.61 195.43,734.64 C200.52,722.54 200.65,722.00 198.44,722.00 C196.95,722.00 190.82,733.88 189.40,739.53 C189.06,740.89 188.43,742.00 188.00,742.00 C187.57,742.00 186.94,740.89 186.60,739.53 C185.18,733.88 179.05,722.00 177.56,722.00 C176.70,722.00 176.00,722.34 175.99,722.75 C175.99,723.16 178.57,729.69 181.72,737.25 ZM 398.67 751.33 C399.03,751.70 399.93,752.00 400.67,752.00 C401.66,752.00 402.01,750.02 402.04,744.25 C402.07,736.52 402.09,736.48 407.03,730.00 C409.76,726.42 411.99,723.16 411.99,722.75 C412.00,722.34 411.15,722.00 410.11,722.00 C409.01,722.00 406.60,724.12 404.36,727.06 L 400.50 732.12 L 398.20 729.31 C392.80,722.70 392.07,722.00 390.58,722.00 C388.04,722.00 388.71,723.80 393.50,729.90 C397.93,735.53 398.00,735.75 398.00,743.15 C398.00,747.28 398.30,750.97 398.67,751.33 ZM 777.69 751.35 C779.50,753.16 780.54,750.66 781.00,743.42 C781.44,736.46 781.92,734.89 784.93,730.50 C786.82,727.75 788.79,725.21 789.31,724.86 C790.38,724.14 789.37,722.00 787.95,722.00 C787.05,722.00 784.34,724.79 780.27,729.88 L 778.37 732.26 L 774.69 727.13 C772.36,723.89 770.26,722.00 769.00,722.00 C766.06,722.00 766.47,723.08 772.00,730.00 C776.96,736.20 777.00,736.31 777.00,743.46 C777.00,747.42 777.31,750.98 777.69,751.35 ZM 265.25 751.28 C265.94,751.53 266.84,751.54 267.25,751.31 C267.66,751.07 268.00,745.28 268.00,738.44 L 268.00 726.00 L 273.07 726.00 C277.37,726.00 278.10,725.73 277.81,724.25 C277.52,722.72 275.99,722.46 265.74,722.22 C254.51,721.95 254.00,722.03 254.00,723.97 C254.00,725.74 254.64,726.00 259.00,726.00 L 264.00 726.00 L 264.00 738.42 C264.00,747.44 264.34,750.96 265.25,751.28 ZM 549.00 759.24 C549.00,761.78 553.45,761.51 555.96,758.81 C557.85,756.78 558.00,755.35 558.00,739.31 C558.00,722.74 557.92,722.00 556.02,722.00 C554.15,722.00 554.03,722.83 553.77,738.75 C553.51,755.04 553.44,755.53 551.25,756.49 C550.01,757.03 549.00,758.27 549.00,759.24 ZM 592.67 751.33 C593.03,751.70 593.93,752.00 594.67,752.00 C595.72,752.00 596.00,748.83 596.00,737.00 C596.00,722.67 595.91,722.00 594.00,722.00 C592.09,722.00 592.00,722.67 592.00,736.33 C592.00,744.22 592.30,750.97 592.67,751.33 ZM 658.78 746.44 C657.56,747.30 655.08,748.00 653.28,748.00 C650.06,748.00 650.00,747.92 650.00,743.50 L 650.00 739.00 L 654.30 739.00 C660.88,739.00 663.41,743.20 658.78,746.44 ZM 379.45 747.38 C377.32,748.20 373.50,748.17 372.67,747.33 C372.30,746.97 372.00,744.94 372.00,742.83 L 372.00 739.00 L 376.46 739.00 C379.91,739.00 381.17,739.46 382.00,741.00 C383.24,743.31 382.00,746.40 379.45,747.38 ZM 486.80 733.80 C486.14,734.46 484.34,735.00 482.80,735.00 C480.15,735.00 480.00,734.76 480.00,730.50 C480.00,726.41 480.22,726.00 482.42,726.00 C483.75,726.00 485.55,726.27 486.42,726.61 C488.29,727.32 488.54,732.06 486.80,733.80 ZM 657.30 732.90 C656.75,733.78 654.88,734.64 653.15,734.81 C650.03,735.12 650.00,735.08 650.00,730.56 C650.00,726.02 650.01,726.00 653.48,726.00 C656.41,726.00 657.07,726.42 657.63,728.65 C657.99,730.11 657.85,732.03 657.30,732.90 ZM 378.07 733.96 C373.70,736.30 372.00,735.15 372.00,729.83 C372.00,726.30 372.22,726.00 374.80,726.00 C376.34,726.00 378.14,726.54 378.80,727.20 C380.64,729.04 380.23,732.81 378.07,733.96 ZM 321.43 733.43 C320.56,734.29 318.76,735.00 317.43,735.00 C315.22,735.00 315.00,734.60 315.00,730.50 C315.00,726.24 315.15,726.00 317.80,726.00 C322.66,726.00 324.69,730.16 321.43,733.43 ZM 755.82 731.69 C755.55,734.05 754.98,734.55 752.25,734.81 C749.01,735.13 749.00,735.11 749.00,730.56 C749.00,726.43 749.22,726.00 751.38,726.00 C754.50,726.00 756.22,728.20 755.82,731.69 ZM 154.00 738.52 C154.00,738.78 152.23,739.00 150.06,739.00 L 146.12 739.00 L 147.65 734.50 C148.50,732.03 149.55,730.00 149.99,730.00 C150.66,730.00 154.00,737.08 154.00,738.52 ZM 683.78 738.25 C683.99,738.66 682.33,739.00 680.08,739.00 C677.84,739.00 676.00,738.60 676.00,738.12 C676.00,736.84 678.95,730.00 679.50,730.00 C679.76,730.00 680.74,731.69 681.68,733.75 C682.62,735.81 683.57,737.84 683.78,738.25 ZM 579.00 738.06 C579.00,738.58 577.20,739.00 575.00,739.00 C572.80,739.00 571.00,738.78 571.00,738.52 C571.00,737.07 574.34,730.00 575.03,730.00 C575.48,730.00 576.14,731.34 576.50,732.99 C576.86,734.63 577.57,736.23 578.08,736.55 C578.58,736.86 579.00,737.54 579.00,738.06 Z" fill="rgb(96,110,72)"/>
<path d="M 330.24 682.00 C328.91,681.40 327.81,681.32 326.90,680.85 C322.65,678.68 322.67,668.17 322.83,557.19 C322.85,545.14 322.87,531.90 322.88,517.36 C323.05,363.80 322.95,356.85 326.31,353.99 C326.58,353.76 326.87,353.56 327.18,353.32 C331.09,350.23 340.16,351.83 343.81,356.26 C344.87,357.55 345.10,385.56 345.03,506.78 C344.95,648.11 345.04,655.82 346.72,657.80 C347.01,658.14 347.26,658.43 347.54,658.69 C349.38,660.33 352.71,660.31 378.30,660.15 L 378.68 660.15 C399.43,660.02 403.09,659.77 404.47,658.39 C405.92,656.93 406.06,648.01 405.96,563.81 C405.95,556.72 405.94,550.16 405.93,544.09 C405.82,477.28 405.81,468.86 409.29,467.01 C410.11,466.57 411.12,466.50 412.37,466.11 C414.09,465.58 431.44,464.90 450.92,464.60 C474.15,464.24 486.72,463.68 487.42,462.98 C489.08,461.33 489.56,279.38 487.92,277.40 C486.86,276.13 476.23,275.94 409.10,276.00 C366.42,276.04 330.96,276.05 330.29,276.04 C327.88,275.97 324.06,270.56 323.42,266.32 C322.94,263.11 323.24,261.28 324.64,258.89 C325.08,258.14 325.40,257.48 325.83,256.90 C328.99,252.63 337.91,252.62 441.62,252.47 C445.92,252.47 450.37,252.46 455.00,252.45 C569.11,252.29 573.59,252.35 575.88,254.14 C577.20,255.16 579.10,256.00 580.11,256.00 C582.59,256.00 585.32,260.39 585.21,264.20 C584.98,272.45 580.01,276.00 568.68,276.00 C565.13,276.00 561.88,276.52 561.20,277.20 C560.27,278.13 560.00,323.86 560.00,476.98 C560.00,655.31 559.84,675.78 558.44,677.78 C554.96,682.76 547.15,684.46 542.33,681.30 C541.78,680.93 541.28,680.72 540.84,680.43 C536.99,677.90 536.99,669.50 537.00,506.96 L 537.00 506.96 C537.00,497.10 537.00,486.68 537.00,475.65 C537.00,318.93 536.74,278.04 535.75,277.25 C534.13,275.95 514.96,275.72 513.00,276.97 C511.68,277.81 511.44,301.62 511.00,478.05 L 510.50 678.17 L 507.75 680.54 C504.11,683.67 498.40,684.73 495.06,682.88 C493.65,682.11 491.66,679.76 490.63,677.67 C488.85,674.03 488.78,669.85 488.94,583.63 C489.05,523.61 488.76,492.49 488.07,490.68 L 487.04 487.97 L 458.27 488.23 L 429.50 488.50 L 429.00 581.54 C428.54,667.98 428.38,674.78 426.75,677.26 C423.43,682.33 423.38,682.34 380.02,682.09 C355.29,681.95 338.49,682.24 336.91,682.84 C334.95,683.59 333.35,683.39 330.24,682.00 ZM 327.92 677.08 L 330.85 680.00 L 375.67 679.97 L 377.26 679.97 C415.77,679.94 421.41,679.94 423.71,677.16 C424.14,676.65 424.45,676.04 424.84,675.32 C425.70,673.70 426.00,648.93 426.00,580.19 C426.00,502.71 426.23,487.06 427.37,486.11 C428.34,485.30 437.67,485.05 459.62,485.24 L 490.50 485.50 L 491.00 579.68 C491.50,673.38 491.51,673.87 493.60,676.68 C496.96,681.19 505.33,680.85 507.70,676.11 C508.14,675.22 508.73,584.50 509.00,474.50 L 509.50 274.50 L 539.50 274.50 L 540.01 475.00 C540.28,585.28 540.62,675.54 540.76,675.60 C540.89,675.65 541.84,676.66 542.87,677.85 C545.63,681.03 551.89,680.81 555.08,677.42 L 557.50 674.84 L 558.50 274.50 L 566.50 274.22 C576.01,273.89 580.41,272.12 581.83,268.06 C583.23,264.05 581.46,258.53 578.32,257.10 C576.61,256.32 540.26,256.00 453.59,256.00 C333.42,256.00 331.23,256.03 328.77,257.97 C323.51,262.10 324.87,270.71 331.12,272.89 C333.34,273.67 357.85,274.00 412.54,274.00 L 490.77 274.00 L 491.14 276.75 C491.34,278.26 491.37,321.69 491.22,373.25 L 490.94 467.00 L 454.00 467.00 C413.81,467.00 411.56,467.29 409.10,472.69 C408.33,474.38 408.00,502.82 408.00,568.44 C408.00,652.64 407.84,661.85 406.42,662.39 C405.55,662.73 391.46,663.00 375.12,663.00 C353.34,663.00 345.08,662.68 344.20,661.80 C343.28,660.88 343.00,625.85 343.00,510.22 L 343.00 359.85 L 340.08 356.92 C336.06,352.90 331.77,352.97 327.90,357.11 L 325.00 360.21 L 325.00 674.15 ZM 17.34 591.70 C21.20,605.99 22.77,610.97 25.82,619.50 C31.03,634.07 36.52,647.80 42.39,660.91 C32.56,639.44 24.47,618.03 19.44,599.50 C18.69,596.72 17.99,594.13 17.34,591.70 ZM 135.65 797.34 C163.99,826.07 196.14,851.77 227.00,869.78 C195.36,851.32 163.89,826.19 135.65,797.34 ZM 0.19 271.84 C0.32,373.15 0.66,441.53 1.05,441.53 C1.07,441.53 1.09,441.35 1.11,441.00 C2.07,423.83 3.88,407.01 6.55,390.44 C3.84,407.56 1.95,425.50 1.12,442.50 C1.10,443.02 1.07,443.28 1.05,443.28 C0.65,443.28 0.32,376.49 0.19,271.84 ZM 12.92 358.08 C15.72,346.07 19.00,334.16 22.76,322.33 C19.50,332.79 16.46,343.81 13.47,355.80 C13.29,356.55 13.10,357.31 12.92,358.08 ZM 2.06 504.55 C2.80,513.71 3.81,523.03 5.06,532.20 C3.59,521.95 2.82,514.83 2.06,504.55 ZM 0.82 496.60 C0.89,491.69 0.97,489.14 1.05,489.14 C1.07,489.14 1.10,489.42 1.13,490.00 C1.20,491.59 1.29,493.19 1.38,494.79 C1.15,492.03 0.97,492.16 0.82,496.60 ZM 7.60 548.76 C8.71,555.27 9.93,561.60 11.24,567.60 C9.77,561.09 8.70,555.45 7.60,548.76 Z" fill="rgb(120,116,54)"/>
<path d="M 327.92 677.08 L 325.00 674.15 L 325.00 360.21 L 327.90 357.11 C331.77,352.97 336.06,352.90 340.08,356.92 L 343.00 359.85 L 343.00 510.22 C343.00,625.85 343.28,660.88 344.20,661.80 C345.08,662.68 353.34,663.00 375.12,663.00 C391.46,663.00 405.55,662.73 406.42,662.39 C407.84,661.85 408.00,652.64 408.00,568.44 C408.00,502.82 408.33,474.38 409.10,472.69 C411.56,467.29 413.81,467.00 454.00,467.00 L 490.94 467.00 L 491.22 373.25 C491.37,321.69 491.34,278.26 491.14,276.75 L 490.77 274.00 L 412.54 274.00 C357.85,274.00 333.34,273.67 331.12,272.89 C324.87,270.71 323.51,262.10 328.77,257.97 C331.23,256.03 333.42,256.00 453.59,256.00 C540.26,256.00 576.61,256.32 578.32,257.10 C581.46,258.53 583.23,264.05 581.83,268.06 C580.41,272.12 576.01,273.89 566.50,274.22 L 558.50 274.50 L 557.50 674.84 L 555.08 677.42 C551.89,680.81 545.63,681.03 542.87,677.85 C541.84,676.66 540.89,675.65 540.76,675.60 C540.62,675.54 540.28,585.28 540.01,475.00 L 539.50 274.50 L 509.50 274.50 L 509.00 474.50 C508.73,584.50 508.14,675.22 507.70,676.11 C505.33,680.85 496.96,681.19 493.60,676.68 C491.51,673.87 491.50,673.38 491.00,579.68 L 490.50 485.50 L 459.62 485.24 C437.67,485.05 428.34,485.30 427.37,486.11 C426.23,487.06 426.00,502.71 426.00,580.19 C426.00,648.93 425.70,673.70 424.84,675.32 C424.45,676.04 424.14,676.65 423.71,677.16 C421.41,679.94 415.77,679.94 377.26,679.97 L 375.67 679.97 L 330.85 680.00 ZM 2.06 504.55 C2.82,514.83 3.59,521.95 5.06,532.20 C5.75,537.26 6.51,542.27 7.33,547.18 C4.42,530.66 2.61,514.41 1.13,494.00 C1.11,493.77 1.09,493.65 1.08,493.65 C0.64,493.65 0.27,572.81 0.16,688.63 C0.24,588.82 0.49,518.75 0.82,496.60 C0.97,492.16 1.15,492.03 1.38,494.79 C1.57,498.01 1.80,501.27 2.06,504.55 ZM 0.15 229.75 C0.24,356.90 0.61,437.86 1.10,437.86 C1.12,437.86 1.14,437.74 1.16,437.50 C1.51,433.05 1.90,428.65 2.32,424.32 C1.83,429.84 1.42,435.40 1.11,441.00 C1.09,441.35 1.07,441.53 1.05,441.53 C0.66,441.53 0.32,373.15 0.19,271.84 C0.17,258.42 0.16,244.36 0.15,229.75 ZM 18.78 597.04 C19.00,597.84 19.22,598.66 19.44,599.50 C23.85,615.75 30.61,634.22 38.85,653.01 C30.65,634.33 23.93,616.01 19.58,600.00 C19.31,599.00 19.04,598.02 18.78,597.04 Z" fill="rgb(185,146,42)"/>
<path d="M 0.14 708.25 C0.23,577.27 0.64,487.33 1.13,494.00 C4.05,534.19 8.23,558.22 19.58,600.00 C30.14,638.89 54.74,691.38 80.27,729.50 C118.15,786.07 172.33,837.87 227.00,869.78 C285.13,903.72 332.87,921.13 396.00,931.44 L 410.50 933.80 L 205.25 933.90 L 0.00 934.00 L 0.14 708.25 ZM 532.50 931.98 C567.21,927.11 602.71,917.70 637.50,904.14 C653.11,898.05 682.39,883.85 694.73,876.38 C698.71,873.97 702.24,872.00 702.57,872.00 C702.91,872.00 710.45,867.18 719.34,861.29 C737.10,849.51 736.07,850.23 741.00,846.22 C742.92,844.66 747.42,841.17 751.00,838.49 C785.46,812.58 824.83,770.52 850.67,732.00 C860.24,717.72 867.86,705.43 873.01,695.92 C900.65,644.93 917.49,595.74 926.40,540.00 C930.50,514.36 931.36,501.83 931.43,467.00 C931.48,437.04 931.19,430.00 929.21,413.50 C922.66,358.86 909.04,310.87 886.79,264.00 C878.69,246.92 874.94,239.89 865.22,223.50 C858.93,212.90 841.89,187.25 837.59,181.91 C836.44,180.48 834.15,177.57 832.50,175.45 C817.37,155.97 789.63,126.76 770.51,110.17 C765.01,105.40 759.39,100.49 758.02,99.25 C756.64,98.01 755.21,97.00 754.83,97.00 C754.45,97.00 753.55,96.43 752.82,95.73 C748.80,91.87 736.88,83.08 720.42,71.87 C701.32,58.85 664.89,39.75 640.00,29.69 C608.06,16.79 574.31,7.28 543.50,2.49 C537.45,1.55 532.31,0.60 532.08,0.39 C531.85,0.18 622.19,0.00 732.83,0.00 L 934.00 0.00 L 934.00 467.00 L 934.00 934.00 L 726.75 933.90 C521.91,933.80 519.65,933.78 532.50,931.98 ZM 549.00 759.24 C549.00,758.27 550.01,757.03 551.25,756.49 C553.44,755.53 553.51,755.04 553.77,738.75 C554.03,722.83 554.15,722.00 556.02,722.00 C557.92,722.00 558.00,722.74 558.00,739.31 C558.00,755.35 557.85,756.78 555.96,758.81 C553.45,761.51 549.00,761.78 549.00,759.24 ZM 137.61 751.18 C137.13,750.40 139.60,743.13 142.96,735.50 C143.44,734.40 144.98,730.91 146.36,727.75 C147.75,724.59 149.48,722.00 150.20,722.00 C150.92,722.00 152.11,723.46 152.84,725.25 C153.57,727.04 154.53,729.40 154.98,730.50 C155.42,731.60 157.65,736.51 159.93,741.42 C162.53,747.03 163.72,750.68 163.12,751.28 C161.74,752.66 160.24,751.39 157.97,746.93 C155.97,743.02 155.94,743.00 149.95,743.00 C144.31,743.00 143.89,743.16 142.98,745.75 C141.09,751.07 138.91,753.28 137.61,751.18 ZM 154.00 738.52 C154.00,737.08 150.66,730.00 149.99,730.00 C149.55,730.00 148.50,732.03 147.65,734.50 L 146.12 739.00 L 150.06 739.00 C152.23,739.00 154.00,738.78 154.00,738.52 ZM 204.52 751.00 C204.04,750.21 203.56,735.13 203.79,728.21 L 204.00 721.92 L 211.74 722.21 C218.18,722.45 219.53,722.79 219.81,724.25 C220.10,725.76 219.32,726.00 214.07,726.00 L 208.00 726.00 L 208.00 730.50 L 208.00 735.00 L 213.50 735.00 C218.33,735.00 219.00,735.24 219.00,737.00 C219.00,738.76 218.33,739.00 213.50,739.00 L 208.00 739.00 L 208.00 743.50 L 208.00 748.00 L 214.00 748.00 C219.13,748.00 220.00,748.26 220.00,749.81 C220.00,751.41 219.09,751.62 212.41,751.56 C208.23,751.53 204.68,751.28 204.52,751.00 ZM 224.67 751.33 C224.30,750.97 224.00,744.44 224.00,736.83 C224.00,723.13 224.02,723.00 226.25,723.07 C227.82,723.12 230.91,726.01 236.50,732.65 C240.90,737.88 244.65,742.57 244.83,743.08 C245.02,743.59 245.49,744.00 245.88,744.00 C246.62,744.00 246.71,742.73 246.89,729.75 C246.98,723.70 247.32,722.00 248.45,722.00 C249.63,722.00 249.95,724.59 250.20,736.02 C250.36,743.73 250.35,750.48 250.17,751.02 C249.35,753.42 246.76,751.28 237.94,740.87 L 228.50 729.74 L 228.22 740.87 C228.01,749.19 227.61,752.00 226.63,752.00 C225.92,752.00 225.03,751.70 224.67,751.33 ZM 265.25 751.28 C264.34,750.96 264.00,747.44 264.00,738.42 L 264.00 726.00 L 259.00 726.00 C254.64,726.00 254.00,725.74 254.00,723.97 C254.00,722.03 254.51,721.95 265.74,722.22 C275.99,722.46 277.52,722.72 277.81,724.25 C278.10,725.73 277.37,726.00 273.07,726.00 L 268.00 726.00 L 268.00 738.44 C268.00,745.28 267.66,751.07 267.25,751.31 C266.84,751.54 265.94,751.53 265.25,751.28 ZM 287.33 750.54 C281.79,748.13 280.89,745.61 281.21,733.38 C281.46,723.97 281.73,722.48 283.25,722.19 C284.83,721.89 285.00,722.91 285.00,732.75 C285.00,742.85 285.17,743.81 287.31,745.83 C290.47,748.79 295.96,748.74 298.79,745.73 C300.64,743.75 300.96,742.07 301.21,732.99 C301.46,723.95 301.74,722.48 303.25,722.19 C304.83,721.89 305.00,722.90 305.00,732.48 C305.00,744.43 303.81,748.01 299.03,750.48 C295.44,752.34 291.51,752.36 287.33,750.54 ZM 311.69 751.35 C311.31,750.98 311.00,744.16 311.00,736.21 L 311.00 721.75 L 316.41 722.20 C324.05,722.83 327.00,725.00 327.00,729.98 C327.00,732.70 326.35,734.53 324.89,735.89 L 322.78 737.85 L 325.39 740.67 C326.83,742.21 328.00,743.86 328.00,744.33 C328.00,744.80 328.91,746.35 330.03,747.76 C331.33,749.41 331.71,750.69 331.10,751.30 C329.57,752.83 327.25,751.39 325.44,747.80 C323.15,743.27 318.99,739.00 316.86,739.00 C315.40,739.00 315.04,740.05 314.80,745.17 C314.52,750.85 313.41,753.07 311.69,751.35 ZM 321.43 733.43 C324.69,730.16 322.66,726.00 317.80,726.00 C315.15,726.00 315.00,726.24 315.00,730.50 C315.00,734.60 315.22,735.00 317.43,735.00 C318.76,735.00 320.56,734.29 321.43,733.43 ZM 368.22 737.25 L 368.50 722.50 L 374.27 722.62 C381.53,722.77 384.00,724.69 384.00,730.19 C384.00,732.70 383.48,734.26 382.51,734.64 C381.34,735.08 381.66,735.82 384.01,738.01 C391.19,744.71 385.07,751.98 372.22,751.99 L 367.95 752.00 L 368.22 737.25 ZM 379.45 747.38 C382.00,746.40 383.24,743.31 382.00,741.00 C381.17,739.46 379.91,739.00 376.46,739.00 L 372.00 739.00 L 372.00 742.83 C372.00,744.94 372.30,746.97 372.67,747.33 C373.50,748.17 377.32,748.20 379.45,747.38 ZM 378.07 733.96 C380.23,732.81 380.64,729.04 378.80,727.20 C378.14,726.54 376.34,726.00 374.80,726.00 C372.22,726.00 372.00,726.30 372.00,729.83 C372.00,735.15 373.70,736.30 378.07,733.96 ZM 398.67 751.33 C398.30,750.97 398.00,747.28 398.00,743.15 C398.00,735.75 397.93,735.53 393.50,729.90 C388.71,723.80 388.04,722.00 390.58,722.00 C392.07,722.00 392.80,722.70 398.20,729.31 L 400.50 732.12 L 404.36 727.06 C406.60,724.12 409.01,722.00 410.11,722.00 C411.15,722.00 412.00,722.34 411.99,722.75 C411.99,723.16 409.76,726.42 407.03,730.00 C402.09,736.48 402.07,736.52 402.04,744.25 C402.01,750.02 401.66,752.00 400.67,752.00 C399.93,752.00 399.03,751.70 398.67,751.33 ZM 428.75 750.43 C427.19,749.58 426.00,748.09 426.00,746.97 C426.00,744.64 426.81,744.54 429.44,746.53 C433.12,749.31 438.00,747.80 438.00,743.87 C438.00,742.92 435.41,740.18 432.25,737.78 C427.36,734.07 426.45,732.88 426.20,729.82 C425.95,726.91 426.40,725.83 428.58,724.11 C433.26,720.43 442.29,722.19 440.65,726.47 C440.12,727.86 439.68,727.98 438.55,727.04 C437.77,726.39 435.64,726.01 433.82,726.18 C431.11,726.44 430.45,726.96 430.25,729.00 C430.06,731.02 431.02,732.18 435.23,735.01 C443.04,740.25 444.30,747.24 438.04,750.48 C434.41,752.36 432.29,752.35 428.75,750.43 ZM 446.44 750.70 C446.16,749.98 446.07,743.35 446.22,735.95 C446.45,724.79 446.75,722.50 448.00,722.50 C449.14,722.50 449.57,723.99 449.80,728.75 L 450.10 735.00 L 458.05 735.00 L 466.00 735.00 L 466.00 728.50 C466.00,722.67 466.21,722.00 468.00,722.00 C469.91,722.00 470.00,722.67 470.00,737.00 C470.00,751.33 469.91,752.00 468.00,752.00 C466.21,752.00 466.00,751.33 466.00,745.50 L 466.00 739.00 L 458.00 739.00 L 450.00 739.00 L 450.00 745.50 C450.00,750.67 449.69,752.00 448.47,752.00 C447.63,752.00 446.71,751.41 446.44,750.70 ZM 477.22 751.16 C476.26,750.55 476.01,746.89 476.22,736.42 L 476.50 722.50 L 479.41 722.17 C490.13,720.95 496.49,728.29 490.88,735.42 C488.79,738.09 488.78,738.14 490.69,740.31 C493.89,743.96 497.92,750.74 497.28,751.39 C495.71,752.96 493.76,751.54 490.09,746.13 C486.24,740.47 484.46,739.00 481.42,739.00 C480.34,739.00 480.00,740.56 480.00,745.50 C480.00,751.98 479.65,752.70 477.22,751.16 ZM 486.80 733.80 C488.54,732.06 488.29,727.32 486.42,726.61 C485.55,726.27 483.75,726.00 482.42,726.00 C480.22,726.00 480.00,726.41 480.00,730.50 C480.00,734.76 480.15,735.00 482.80,735.00 C484.34,735.00 486.14,734.46 486.80,733.80 ZM 501.34 750.45 C501.12,749.87 501.07,743.35 501.22,735.95 L 501.50 722.50 L 509.25 722.21 C516.48,721.94 517.00,722.05 517.00,723.96 C517.00,725.79 516.37,726.00 511.00,726.00 L 505.00 726.00 L 505.00 730.50 L 505.00 735.00 L 511.00 735.00 C516.33,735.00 517.00,735.22 517.00,737.00 C517.00,738.78 516.33,739.00 511.00,739.00 L 505.00 739.00 L 505.00 743.50 L 505.00 748.00 L 511.57 748.00 C517.30,748.00 518.10,748.23 517.81,749.75 C517.52,751.24 516.30,751.50 509.61,751.50 C505.04,751.50 501.58,751.06 501.34,750.45 ZM 528.25 751.26 L 522.00 750.90 L 522.00 736.45 L 522.00 722.00 L 530.00 722.00 C537.33,722.00 538.00,722.17 538.00,724.00 C538.00,725.78 537.33,726.00 532.00,726.00 L 526.00 726.00 L 526.00 730.50 L 526.00 735.00 L 532.07 735.00 C537.32,735.00 538.10,735.24 537.81,736.75 C537.55,738.13 536.27,738.56 531.74,738.80 L 526.00 739.10 L 526.00 743.55 L 526.00 748.00 L 532.00 748.00 C537.33,748.00 538.00,748.22 538.00,750.00 C538.00,751.31 537.40,751.93 536.25,751.81 C535.29,751.70 531.69,751.45 528.25,751.26 ZM 562.26 749.85 C562.55,748.56 565.16,741.74 568.06,734.71 C571.84,725.54 573.76,722.00 574.84,722.21 C576.21,722.47 587.90,747.79 587.97,750.66 C588.04,753.31 584.02,750.52 582.58,746.90 L 581.02 743.00 L 574.71 743.00 L 568.41 743.00 L 566.86 747.25 C565.15,751.96 561.29,754.13 562.26,749.85 ZM 579.00 738.06 C579.00,737.54 578.58,736.86 578.08,736.55 C577.57,736.23 576.86,734.63 576.50,732.99 C576.14,731.34 575.48,730.00 575.03,730.00 C574.34,730.00 571.00,737.07 571.00,738.52 C571.00,738.78 572.80,739.00 575.00,739.00 C577.20,739.00 579.00,738.58 579.00,738.06 ZM 592.67 751.33 C592.30,750.97 592.00,744.22 592.00,736.33 C592.00,722.67 592.09,722.00 594.00,722.00 C595.91,722.00 596.00,722.67 596.00,737.00 C596.00,748.83 595.72,752.00 594.67,752.00 C593.93,752.00 593.03,751.70 592.67,751.33 ZM 602.67 751.33 C602.30,750.97 602.00,744.44 602.00,736.83 C602.00,723.13 602.02,723.00 604.26,723.00 C605.81,723.00 607.83,724.67 610.63,728.25 C616.75,736.08 623.11,743.00 624.20,743.00 C624.77,743.00 625.02,738.85 624.83,732.77 C624.54,723.67 624.69,722.50 626.25,722.20 C627.85,721.88 628.00,723.11 628.00,736.89 C628.00,751.08 627.90,751.89 626.17,751.22 C625.16,750.82 622.80,748.70 620.92,746.50 C619.04,744.30 617.05,742.00 616.50,741.40 C615.95,740.79 613.70,738.00 611.50,735.19 C609.30,732.38 607.16,730.06 606.75,730.04 C606.34,730.02 606.00,734.95 606.00,741.00 C606.00,749.50 605.70,752.00 604.67,752.00 C603.93,752.00 603.03,751.70 602.67,751.33 ZM 646.43 750.67 C646.16,749.97 646.07,743.35 646.22,735.95 L 646.50 722.50 L 650.66 722.20 C660.01,721.52 665.29,726.94 661.58,733.42 C660.44,735.40 660.22,736.57 660.94,736.81 C665.32,738.27 666.29,744.44 662.75,748.41 C660.88,750.51 659.35,751.02 653.71,751.44 C648.75,751.81 646.78,751.60 646.43,750.67 ZM 658.78 746.44 C663.41,743.20 660.88,739.00 654.30,739.00 L 650.00 739.00 L 650.00 743.50 C650.00,747.92 650.06,748.00 653.28,748.00 C655.08,748.00 657.56,747.30 658.78,746.44 ZM 657.30 732.90 C657.85,732.03 657.99,730.11 657.63,728.65 C657.07,726.42 656.41,726.00 653.48,726.00 C650.01,726.00 650.00,726.02 650.00,730.56 C650.00,735.08 650.03,735.12 653.15,734.81 C654.88,734.64 656.75,733.78 657.30,732.90 ZM 667.31 749.25 C668.46,743.60 678.23,722.00 679.63,722.00 C680.41,722.00 681.56,723.24 682.18,724.75 C682.81,726.26 685.25,731.81 687.60,737.07 C693.04,749.26 693.77,752.00 691.57,752.00 C690.58,752.00 689.17,750.23 688.00,747.50 L 686.07 743.00 L 679.98 743.00 L 673.89 743.00 L 671.90 747.50 C669.63,752.63 666.37,753.88 667.31,749.25 ZM 683.78 738.25 C683.57,737.84 682.62,735.81 681.68,733.75 C680.74,731.69 679.76,730.00 679.50,730.00 C678.95,730.00 676.00,736.84 676.00,738.12 C676.00,738.60 677.84,739.00 680.08,739.00 C682.33,739.00 683.99,738.66 683.78,738.25 ZM 697.69 751.35 C697.31,750.98 697.00,744.22 697.00,736.33 C697.00,722.67 697.09,722.00 699.00,722.00 C700.78,722.00 701.00,722.67 701.00,728.00 C701.00,731.30 701.34,733.98 701.75,733.96 C702.16,733.94 704.75,731.27 707.50,728.03 C710.76,724.19 713.28,722.11 714.75,722.07 C715.99,722.03 717.00,722.29 717.00,722.64 C717.00,722.99 714.46,726.17 711.36,729.70 L 705.72 736.12 L 709.11 739.71 C710.98,741.68 714.18,744.85 716.24,746.76 C719.95,750.18 720.33,752.00 717.33,752.00 C716.48,752.00 712.48,748.80 708.44,744.88 L 701.10 737.76 L 700.80 744.55 C700.53,750.77 699.45,753.12 697.69,751.35 ZM 724.35 750.45 C724.13,749.87 724.07,743.35 724.22,735.95 L 724.50 722.50 L 731.99 722.50 C738.32,722.50 739.52,722.77 739.81,724.25 C740.10,725.76 739.32,726.00 734.07,726.00 L 728.00 726.00 L 728.00 730.50 L 728.00 735.00 L 733.50 735.00 C738.33,735.00 739.00,735.24 739.00,737.00 C739.00,738.76 738.33,739.00 733.50,739.00 L 728.00 739.00 L 728.00 743.50 L 728.00 748.00 L 734.00 748.00 C739.37,748.00 740.00,748.21 740.00,750.03 C740.00,751.93 739.47,752.05 732.38,751.78 C728.19,751.63 724.58,751.03 724.35,750.45 ZM 745.22 751.16 C744.26,750.55 744.01,746.89 744.22,736.42 L 744.50 722.50 L 750.36 722.53 C755.57,722.56 756.50,722.89 758.71,725.44 C761.44,728.62 761.33,732.87 758.44,736.07 C757.04,737.61 757.30,738.34 761.43,744.24 C763.92,747.80 765.66,751.00 765.31,751.36 C763.78,752.88 761.85,751.72 759.32,747.75 C755.17,741.23 752.87,739.00 750.33,739.00 C748.13,739.00 748.00,739.36 748.00,745.50 C748.00,751.98 747.65,752.70 745.22,751.16 ZM 755.82 731.69 C756.22,728.20 754.50,726.00 751.38,726.00 C749.22,726.00 749.00,726.43 749.00,730.56 C749.00,735.11 749.01,735.13 752.25,734.81 C754.98,734.55 755.55,734.05 755.82,731.69 ZM 777.69 751.35 C777.31,750.98 777.00,747.42 777.00,743.46 C777.00,736.31 776.96,736.20 772.00,730.00 C766.47,723.08 766.06,722.00 769.00,722.00 C770.26,722.00 772.36,723.89 774.69,727.13 L 778.37 732.26 L 780.27 729.88 C784.34,724.79 787.05,722.00 787.95,722.00 C789.37,722.00 790.38,724.14 789.31,724.86 C788.79,725.21 786.82,727.75 784.93,730.50 C781.92,734.89 781.44,736.46 781.00,743.42 C780.54,750.66 779.50,753.16 777.69,751.35 ZM 181.72 737.25 C178.57,729.69 175.99,723.16 175.99,722.75 C176.00,722.34 176.70,722.00 177.56,722.00 C179.05,722.00 185.18,733.88 186.60,739.53 C186.94,740.89 187.57,742.00 188.00,742.00 C188.43,742.00 189.06,740.89 189.40,739.53 C190.82,733.88 196.95,722.00 198.44,722.00 C200.65,722.00 200.52,722.54 195.43,734.64 C192.92,740.61 190.40,746.74 189.84,748.25 C189.27,749.76 188.50,751.00 188.13,751.00 C187.76,751.00 184.88,744.81 181.72,737.25 ZM 336.00 736.50 L 336.00 722.00 L 344.00 722.00 C351.33,722.00 352.00,722.17 352.00,724.00 C352.00,725.78 351.33,726.00 346.00,726.00 L 340.00 726.00 L 340.00 730.50 L 340.00 735.00 L 345.50 735.00 C350.33,735.00 351.00,735.24 351.00,737.00 C351.00,738.76 350.33,739.00 345.50,739.00 L 340.00 739.00 L 340.00 743.50 L 340.00 748.00 L 346.00 748.00 C350.67,748.00 352.00,748.33 352.00,749.50 C352.00,750.71 350.44,751.00 344.00,751.00 L 336.00 751.00 L 336.00 736.50 ZM 602.77 680.29 C601.27,680.06 599.13,678.71 598.01,677.28 C595.98,674.70 595.97,674.19 596.24,536.10 L 596.50 397.50 L 599.34 391.80 C602.70,385.07 610.18,377.73 616.78,374.68 C620.58,372.92 623.34,372.50 631.00,372.51 C639.49,372.51 641.09,372.81 646.00,375.36 C653.06,379.01 658.48,384.20 661.84,390.50 L 664.50 395.50 L 664.77 534.89 C665.01,660.27 664.88,674.53 663.47,676.69 C661.24,680.09 657.47,681.31 653.36,679.95 C646.65,677.74 647.00,681.82 647.00,604.75 L 647.00 534.95 L 631.25 535.22 L 615.50 535.50 L 615.00 605.33 L 614.50 675.16 L 611.23 678.08 C609.44,679.69 607.41,680.93 606.73,680.85 C606.06,680.77 604.27,680.51 602.77,680.29 ZM 646.98 460.25 C646.96,407.17 646.84,403.24 645.10,399.42 C640.23,388.68 627.94,386.80 619.28,395.45 L 615.00 399.74 L 615.00 458.37 L 615.00 517.00 L 631.00 517.00 L 647.00 517.00 L 646.98 460.25 ZM 690.27 680.30 C689.04,680.06 687.13,678.59 686.02,677.03 C684.01,674.21 684.00,673.09 684.00,525.68 L 684.00 377.18 L 687.08 374.59 C690.79,371.47 695.77,371.19 699.14,373.91 L 701.50 375.82 L 702.00 445.16 L 702.50 514.50 L 718.75 514.77 L 735.00 515.05 L 735.00 446.07 L 735.00 377.08 L 737.74 374.54 C741.57,370.99 747.21,371.04 750.55,374.65 L 753.00 377.29 L 753.00 525.71 C753.00,625.59 752.66,674.76 751.97,676.06 C749.19,681.26 740.66,681.93 736.97,677.23 C735.05,674.80 735.00,672.85 735.00,603.84 L 735.00 532.95 L 718.75 533.23 L 702.50 533.50 L 702.00 604.84 L 701.50 676.17 L 698.69 678.59 C695.95,680.95 694.82,681.18 690.27,680.30 ZM 778.27 680.32 C777.04,680.07 775.13,678.71 774.02,677.30 C772.23,675.02 772.00,673.26 772.00,661.54 C772.00,649.04 772.12,648.23 774.31,646.17 C777.62,643.07 784.85,643.14 787.83,646.31 C789.83,648.45 790.00,649.65 790.00,661.76 C790.00,673.96 789.84,675.07 787.75,677.41 C785.39,680.04 782.04,681.07 778.27,680.32 ZM 774.45 622.55 L 772.00 620.09 L 772.00 499.00 L 772.00 377.92 L 774.19 374.96 C776.03,372.47 777.06,372.00 780.73,372.00 C784.03,372.00 785.69,372.60 787.55,374.45 L 790.00 376.91 L 789.99 497.20 C789.98,563.37 789.70,618.53 789.36,619.79 C787.98,624.95 778.60,626.69 774.45,622.55 ZM 134.18 562.16 L 131.00 559.32 L 131.00 411.10 C131.00,300.32 131.29,262.32 132.16,260.68 C132.80,259.48 134.04,257.95 134.91,257.28 C137.36,255.40 143.47,255.75 146.14,257.91 L 148.50 259.82 L 149.00 403.16 L 149.50 546.50 L 172.84 547.00 C195.88,547.49 196.20,547.53 198.09,549.86 C199.22,551.26 200.00,553.77 200.00,556.02 C200.00,559.04 199.37,560.36 196.92,562.41 L 193.85 565.00 L 165.60 565.00 L 137.36 565.00 L 134.18 562.16 ZM 222.08 562.41 L 219.00 559.82 L 219.00 410.37 L 219.00 260.91 L 221.45 258.45 L 223.91 256.00 L 253.20 256.03 C274.66,256.06 282.92,256.39 284.09,257.28 C288.78,260.89 288.90,268.36 284.33,271.96 C281.89,273.88 280.37,274.00 259.37,274.00 L 237.00 274.00 L 237.00 337.45 L 237.00 400.90 L 259.97 401.20 C281.62,401.48 283.07,401.62 285.01,403.56 C286.14,404.69 287.32,407.22 287.64,409.17 C288.13,412.16 287.73,413.27 285.19,416.11 L 282.17 419.50 L 259.58 419.80 L 237.00 420.11 L 237.00 483.55 L 237.00 547.00 L 259.91 547.00 L 282.82 547.00 L 285.51 550.19 C287.70,552.79 288.09,554.05 287.63,556.94 C287.30,559.01 285.98,561.44 284.48,562.75 C281.92,564.97 281.51,565.00 253.52,565.00 L 225.15 565.00 L 222.08 562.41 ZM 0.15 224.25 L 0.00 0.00 L 200.25 0.11 C310.39,0.17 398.70,0.58 396.50,1.02 C394.30,1.46 387.10,2.81 380.50,4.01 C349.82,9.61 315.23,20.12 284.02,33.33 C276.46,36.54 249.27,49.96 241.00,54.58 C224.17,63.97 195.49,82.80 184.50,91.69 C183.94,92.13 180.12,95.17 176.00,98.44 C144.88,123.08 111.48,158.62 87.75,192.34 C84.59,196.83 81.67,200.95 81.25,201.50 C75.94,208.56 59.37,236.62 52.07,250.95 C34.53,285.35 23.64,314.94 13.47,355.80 C7.84,378.43 3.58,406.74 1.16,437.50 C0.63,444.14 0.23,359.52 0.15,224.25 ZM 242.51 242.79 C238.32,240.36 236.92,237.71 237.37,233.07 C237.77,228.92 238.58,227.87 250.72,215.82 C262.99,203.65 263.86,203.00 267.68,203.00 C273.68,203.00 277.00,206.44 277.00,212.66 L 277.00 217.42 L 263.71 230.71 C252.57,241.85 249.94,244.00 247.46,243.97 C245.83,243.95 243.61,243.42 242.51,242.79 Z" fill="rgb(251,252,250)"/>
</g>
</svg>